# xmcd CD database file
#
# Track frame offsets:
#	150
#	15028
#	28247
#	40311
#	54680
#	68426
#	80187
#	91096
#	106043
#	120453
#	135275
#	147599
#	160482
#	172959
#	187440
#	201537
#	216301
#	231101
#
# Disc length: 3279 seconds
#
# Revision: 0
# Processed by: cddbd v1.5.1PL0 Copyright (c) Steve Scherf et al.
# Submitted via: CDex 1.50beta9
#
DISCID=fd0ccd12
DTITLE=Anita O'Day - Bolero At The Savoy - CD 1
DYEAR=1900
DGENRE=Jazz
TTITLE0=Deep in The Blues
TTITLE1=Georgia on my Mind
TTITLE2=Just a little bit South of North Carolina
TTITLE3=Slow Down
TTITLE4=Let me off Uptown
TTITLE5=Green Eyes
TTITLE6=Kick It
TTITLE7=Stof, the red Lights on
TTITLE8=The Walls keppt Talking
TTITLE9=How Do?
TTITLE10=Coppin a Plea
TTITLE11=Bolero at the Savoy
TTITLE12=Harlem on Parade
TTITLE13=Thats What you think
TTITLE14=Barrelhouse Bessie from Basin Street
TTITLE15=Deliver me to Tennessee
TTITLE16=Massachusetts
TTITLE17="Murder" he says
EXTD=
EXTT0=
EXTT1=
EXTT2=
EXTT3=
EXTT4=
EXTT5=
EXTT6=
EXTT7=
EXTT8=
EXTT9=
EXTT10=
EXTT11=
EXTT12=
EXTT13=
EXTT14=
EXTT15=
EXTT16=
EXTT17=
PLAYORDER=
